<?xml version="1.0" encoding="UTF-8"?>
<svg width="24px" height="24px" viewBox="0 0 24 24" version="1.1" xmlns="http://www.w3.org/2000/svg" xmlns:xlink="http://www.w3.org/1999/xlink">
    <!-- Generator: Sketch 56.2 (81672) - https://sketch.com -->
    <title>icons / rounded / ~ player / rewind</title>
    <desc>Created with Sketch.</desc>
    <defs>
        <path d="M5.58,16.89 L11.35,12.82 C11.91,12.42 11.91,11.58 11.35,11.19 L5.58,7.11 C4.91,6.65 4,7.12 4,7.93 L4,16.07 C4,16.88 4.91,17.35 5.58,16.89 Z M13,7.93 L13,16.07 C13,16.88 13.91,17.35 14.58,16.89 L20.35,12.82 C20.91,12.42 20.91,11.58 20.35,11.19 L14.58,7.12 C13.91,6.65 13,7.12 13,7.93 L13,7.93 Z" id="path-1"></path>
    </defs>
    <g id="icons-/-rounded-/-~-player-/-rewind" stroke="none" stroke-width="1" fill="none" fill-rule="evenodd">
        <g id="div">
            <polygon fill-rule="nonzero" points="0 0 24 0 24 24 0 24"></polygon>
            <mask id="mask-2" fill="white">
                <use xlink:href="#path-1"></use>
            </mask>
            <use fill="#000000" xlink:href="#path-1"></use>
            <g id="colors-/-gray-/-black" mask="url(#mask-2)" fill="#000000">
                <rect id="div" x="0" y="0" width="24" height="24"></rect>
            </g>
        </g>
    </g>
</svg>