<svg xmlns="http://www.w3.org/2000/svg" xmlns:xlink="http://www.w3.org/1999/xlink" width="552" height="128" viewBox="0 0 552 128">
  <defs>
    <path id="monogram-&amp;-wordmark---horizontal-a" d="M90.5582842,120 C91.6628537,120 92.5582842,120.895431 92.5582842,122 L92.5582842,128 L28.188398,128 L28.188398,122 C28.188398,120.895431 29.0838285,120 30.188398,120 L90.5582842,120 Z M87.4169223,1.2550917 C104.503592,6.1546155 114.383227,23.9779472 109.483703,41.0646173 C105.873386,53.6552872 95.245717,62.33269 83.0663203,64.0671801 C81.3231016,76.5645988 88.9971331,88.7613531 101.477137,92.3399367 L105.742244,93.5629365 C106.804025,93.8673971 107.417954,94.9749542 107.113493,96.0367346 L102.893219,110.75458 C102.588758,111.81636 101.481201,112.430289 100.419421,112.125828 L17.6376391,88.3885344 C16.5758588,88.0840738 15.9619298,86.9765166 16.2663904,85.9147363 L20.4866646,71.1968912 C20.7911252,70.1351109 21.8986823,69.5211819 22.9604627,69.8256426 L27.2255699,71.0486424 C39.705526,74.6272122 52.676717,68.3504571 57.8224147,56.8284149 C48.4117125,48.9037348 43.9970064,35.9127995 47.6073967,23.3218721 C52.5069205,6.23520199 70.3302522,-3.64443211 87.4169223,1.2550917 Z M53.7950273,25.0961466 C49.8754082,38.7654827 57.7791155,53.0241481 71.4484516,56.9437671 C85.1177877,60.8633862 99.3764531,52.9596789 103.296072,39.2903428 C107.215691,25.6210067 99.3119839,11.3623413 85.6426478,7.4427223 C71.9733117,3.52310325 57.7146463,11.4268105 53.7950273,25.0961466 Z M82.0940987,19.8179835 C88.9287668,21.777793 92.8806204,28.9071257 90.9208109,35.7417938 C88.9610014,42.5764618 81.8316687,46.5283154 74.9970006,44.5685059 C68.1623326,42.6086964 64.210479,35.4793637 66.1702885,28.6446957 C68.130098,21.8100276 75.2594307,17.858174 82.0940987,19.8179835 Z"/>
  </defs>
  <g fill="none" fill-rule="evenodd">
    <path fill="#000" d="M23.864,54.644 C25.688,54.644 27.132,54.112 28.196,53.048 C29.26,51.984 29.792,50.5653333 29.792,48.792 L29.792,48.792 L29.792,10.336 L42.104,10.336 C45.8533333,10.336 47.728,8.71466667 47.728,5.472 C47.728,2.28 45.8533333,0.684 42.104,0.684 L42.104,0.684 L5.624,0.684 C1.87466667,0.684 0,2.28 0,5.472 C0,8.71466667 1.87466667,10.336 5.624,10.336 L5.624,10.336 L17.936,10.336 L17.936,48.792 C17.936,50.5653333 18.4806667,51.984 19.57,53.048 C20.6593333,54.112 22.0906667,54.644 23.864,54.644 Z M104.998222,54.72 C106.568889,54.72 107.835556,54.2386667 108.798222,53.276 C109.760889,52.3133333 110.242222,50.996 110.242222,49.324 L110.242222,49.324 L110.242222,6.156 C110.242222,4.43333333 109.722889,3.02733333 108.684222,1.938 C107.645556,0.848666667 106.290222,0.304 104.618222,0.304 C102.338222,0.304 100.514222,1.596 99.1462222,4.18 L99.1462222,4.18 L83.7942222,33.44 L68.3662222,4.18 C67.0995556,1.596 65.2502222,0.304 62.8182222,0.304 C61.1462222,0.304 59.7908889,0.848666667 58.7522222,1.938 C57.7135556,3.02733333 57.1942222,4.43333333 57.1942222,6.156 L57.1942222,6.156 L57.1942222,49.324 C57.1942222,50.996 57.6755556,52.3133333 58.6382222,53.276 C59.6008889,54.2386667 60.8422222,54.72 62.3622222,54.72 C63.9328889,54.72 65.1995556,54.226 66.1622222,53.238 C67.1248889,52.25 67.6062222,50.9453333 67.6062222,49.324 L67.6062222,49.324 L67.6062222,22.876 L78.3982222,42.788 C79.1075556,44.1053333 79.8928889,45.068 80.7542222,45.676 C81.6155556,46.284 82.6035556,46.588 83.7182222,46.588 C84.8835556,46.588 85.8842222,46.284 86.7202222,45.676 C87.5562222,45.068 88.3288889,44.1053333 89.0382222,42.788 L89.0382222,42.788 L99.8302222,22.496 L99.8302222,49.324 C99.8302222,50.996 100.311556,52.3133333 101.274222,53.276 C102.236889,54.2386667 103.478222,54.72 104.998222,54.72 Z M169.986667,54.948 C174.293333,54.948 178.080667,54.264 181.348667,52.896 C184.616667,51.528 187.15,49.6026667 188.948667,47.12 C190.747333,44.6373333 191.646667,41.7746667 191.646667,38.532 C191.646667,34.3773333 190.139333,31.1093333 187.124667,28.728 C184.11,26.3466667 179.157333,24.396 172.266667,22.876 C169.328,22.2173333 167.060667,21.584 165.464667,20.976 C163.868667,20.368 162.728667,19.6713333 162.044667,18.886 C161.360667,18.1006667 161.018667,17.1 161.018667,15.884 C161.018667,13.8066667 161.905333,12.1726667 163.678667,10.982 C165.452,9.79133333 167.884,9.196 170.974667,9.196 C173.66,9.196 175.876667,9.52533333 177.624667,10.184 C179.372667,10.8426667 181.285333,11.8306667 183.362667,13.148 C184.224,13.6546667 184.895333,13.984 185.376667,14.136 C185.858,14.288 186.377333,14.364 186.934667,14.364 C187.948,14.364 188.847333,13.8826667 189.632667,12.92 C190.418,11.9573333 190.810667,10.8426667 190.810667,9.576 C190.810667,8.664 190.646,7.89133333 190.316667,7.258 C189.987333,6.62466667 189.442667,6.004 188.682667,5.396 C184.021333,1.79866667 178.093333,0 170.898667,0 C166.794667,0 163.108667,0.722 159.840667,2.166 C156.572667,3.61 154.014,5.61133333 152.164667,8.17 C150.315333,10.7286667 149.390667,13.604 149.390667,16.796 C149.390667,19.684 150.036667,22.1413333 151.328667,24.168 C152.620667,26.1946667 154.672667,27.892 157.484667,29.26 C160.296667,30.628 164.058667,31.7933333 168.770667,32.756 C172.976,33.6173333 175.902,34.5293333 177.548667,35.492 C179.195333,36.4546667 180.018667,37.7213333 180.018667,39.292 C180.018667,41.3693333 179.132,42.9653333 177.358667,44.08 C175.585333,45.1946667 173.026667,45.752 169.682667,45.752 C166.997333,45.752 164.54,45.4353333 162.310667,44.802 C160.081333,44.1686667 157.877333,43.168 155.698667,41.8 C154.938667,41.344 154.292667,41.0273333 153.760667,40.85 C153.228667,40.6726667 152.684,40.584 152.126667,40.584 C151.113333,40.584 150.214,41.0653333 149.428667,42.028 C148.643333,42.9906667 148.250667,44.1053333 148.250667,45.372 C148.250667,46.3346667 148.415333,47.1326667 148.744667,47.766 C149.074,48.3993333 149.618667,48.9946667 150.378667,49.552 C152.557333,51.2746667 155.369333,52.6046667 158.814667,53.542 C162.26,54.4793333 165.984,54.948 169.986667,54.948 Z M209.396889,68.324 C211.068889,68.324 212.411556,67.868 213.424889,66.956 C214.438222,66.044 214.944889,64.828 214.944889,63.308 L214.944889,63.308 L214.944889,48.944 C216.059556,50.8186667 217.642889,52.2753333 219.694889,53.314 C221.746889,54.3526667 224.039556,54.872 226.572889,54.872 C229.815556,54.872 232.678222,54.0866667 235.160889,52.516 C237.643556,50.9453333 239.581556,48.7033333 240.974889,45.79 C242.368222,42.8766667 243.064889,39.4946667 243.064889,35.644 C243.064889,31.7933333 242.368222,28.386 240.974889,25.422 C239.581556,22.458 237.630889,20.1526667 235.122889,18.506 C232.614889,16.8593333 229.764889,16.036 226.572889,16.036 C223.988889,16.036 221.658222,16.5806667 219.580889,17.67 C217.503556,18.7593333 215.907556,20.2666667 214.792889,22.192 L214.792889,22.192 L214.792889,21.584 C214.792889,19.9626667 214.286222,18.658 213.272889,17.67 C212.259556,16.682 210.891556,16.188 209.168889,16.188 C207.446222,16.188 206.065556,16.682 205.026889,17.67 C203.988222,18.658 203.468889,19.9626667 203.468889,21.584 L203.468889,21.584 L203.468889,63.08 C203.468889,64.6506667 204.013556,65.9173333 205.102889,66.88 C206.192222,67.8426667 207.623556,68.324 209.396889,68.324 Z M223.228889,46.132 C220.543556,46.132 218.466222,45.2073333 216.996889,43.358 C215.527556,41.5086667 214.792889,38.8866667 214.792889,35.492 C214.792889,32.0466667 215.527556,29.3993333 216.996889,27.55 C218.466222,25.7006667 220.543556,24.776 223.228889,24.776 C225.914222,24.776 227.991556,25.726 229.460889,27.626 C230.930222,29.526 231.664889,32.1986667 231.664889,35.644 C231.664889,39.0386667 230.930222,41.6353333 229.460889,43.434 C227.991556,45.2326667 225.914222,46.132 223.228889,46.132 Z M266.287111,54.872 C268.668444,54.872 270.745778,54.34 272.519111,53.276 C274.292444,52.212 275.559111,50.7426667 276.319111,48.868 L276.319111,48.868 L276.319111,49.4 C276.319111,50.9706667 276.813111,52.25 277.801111,53.238 C278.789111,54.226 280.093778,54.72 281.715111,54.72 C283.437778,54.72 284.780444,54.2513333 285.743111,53.314 C286.705778,52.3766667 287.187111,51.072 287.187111,49.4 L287.187111,49.4 L287.187111,32.224 C287.187111,26.752 285.869778,22.686 283.235111,20.026 C280.600444,17.366 276.547111,16.036 271.075111,16.036 C268.592444,16.036 266.071778,16.3146667 263.513111,16.872 C260.954444,17.4293333 258.788444,18.1893333 257.015111,19.152 C256.001778,19.7093333 255.267111,20.3173333 254.811111,20.976 C254.355111,21.6346667 254.127111,22.4706667 254.127111,23.484 C254.127111,24.7506667 254.456444,25.7766667 255.115111,26.562 C255.773778,27.3473333 256.660444,27.74 257.775111,27.74 C258.585778,27.74 259.573778,27.4613333 260.739111,26.904 C264.843111,25.384 267.984444,24.624 270.163111,24.624 C272.341778,24.624 273.899778,25.1053333 274.837111,26.068 C275.774444,27.0306667 276.243111,28.576 276.243111,30.704 L276.243111,30.704 L276.243111,32.072 L274.267111,32.072 C268.896444,32.072 264.665778,32.4266667 261.575111,33.136 C258.484444,33.8453333 256.242444,34.9853333 254.849111,36.556 C253.455778,38.1266667 252.759111,40.28 252.759111,43.016 C252.759111,45.2453333 253.354444,47.272 254.545111,49.096 C255.735778,50.92 257.357111,52.3386667 259.409111,53.352 C261.461111,54.3653333 263.753778,54.872 266.287111,54.872 Z M268.795111,46.968 C267.376444,46.968 266.198444,46.5246667 265.261111,45.638 C264.323778,44.7513333 263.855111,43.5986667 263.855111,42.18 C263.855111,40.4573333 264.678444,39.2666667 266.325111,38.608 C267.971778,37.9493333 270.847111,37.62 274.951111,37.62 L274.951111,37.62 L276.243111,37.62 L276.243111,38.912 C276.243111,41.2933333 275.559111,43.2313333 274.191111,44.726 C272.823111,46.2206667 271.024444,46.968 268.795111,46.968 Z M317.249333,54.872 C319.58,54.872 321.809333,54.5933333 323.937333,54.036 C326.065333,53.4786667 327.94,52.6933333 329.561333,51.68 C331.132,50.768 331.917333,49.3746667 331.917333,47.5 C331.917333,46.1826667 331.600667,45.0933333 330.967333,44.232 C330.334,43.3706667 329.536,42.94 328.573333,42.94 C327.914667,42.94 327.306667,43.054 326.749333,43.282 C326.192,43.51 325.432,43.852 324.469333,44.308 C323.304,44.916 322.316,45.3593333 321.505333,45.638 C320.694667,45.9166667 319.757333,46.056 318.693333,46.056 C315.856,46.056 313.69,45.144 312.195333,43.32 C310.700667,41.496 309.953333,38.8613333 309.953333,35.416 C309.953333,31.9706667 310.700667,29.3486667 312.195333,27.55 C313.69,25.7513333 315.856,24.852 318.693333,24.852 C319.757333,24.852 320.707333,25.004 321.543333,25.308 C322.379333,25.612 323.329333,26.0426667 324.393333,26.6 C325.356,27.056 326.128667,27.398 326.711333,27.626 C327.294,27.854 327.914667,27.968 328.573333,27.968 C329.586667,27.968 330.397333,27.55 331.005333,26.714 C331.613333,25.878 331.917333,24.8013333 331.917333,23.484 C331.917333,21.6093333 331.132,20.1906667 329.561333,19.228 C327.94,18.2146667 326.103333,17.4293333 324.051333,16.872 C321.999333,16.3146667 319.96,16.036 317.933333,16.036 C314.032,16.036 310.586667,16.8466667 307.597333,18.468 C304.608,20.0893333 302.29,22.382 300.643333,25.346 C298.996667,28.31 298.173333,31.7426667 298.173333,35.644 C298.173333,39.5453333 298.946,42.94 300.491333,45.828 C302.036667,48.716 304.253333,50.9453333 307.141333,52.516 C310.029333,54.0866667 313.398667,54.872 317.249333,54.872 Z M359.927556,54.872 C361.852889,54.872 363.955556,54.5806667 366.235556,53.998 C368.515556,53.4153333 370.516889,52.668 372.239556,51.756 C373.151556,51.2493333 373.860889,50.6286667 374.367556,49.894 C374.874222,49.1593333 375.127556,48.3613333 375.127556,47.5 C375.127556,46.2333333 374.810889,45.1946667 374.177556,44.384 C373.544222,43.5733333 372.720889,43.168 371.707556,43.168 C371.200889,43.168 370.618222,43.282 369.959556,43.51 C369.300889,43.738 368.616889,44.004 367.907556,44.308 C366.488889,44.916 365.196889,45.3973333 364.031556,45.752 C362.866222,46.1066667 361.548889,46.284 360.079556,46.284 C357.343556,46.284 355.240889,45.6126667 353.771556,44.27 C352.302222,42.9273333 351.390222,40.7613333 351.035556,37.772 L351.035556,37.772 L372.315556,37.772 C373.278222,37.772 374.025556,37.4806667 374.557556,36.898 C375.089556,36.3153333 375.355556,35.4666667 375.355556,34.352 C375.355556,30.6533333 374.646222,27.4233333 373.227556,24.662 C371.808889,21.9006667 369.820222,19.7726667 367.261556,18.278 C364.702889,16.7833333 361.726222,16.036 358.331556,16.036 C354.784889,16.036 351.618222,16.8593333 348.831556,18.506 C346.044889,20.1526667 343.866222,22.4453333 342.295556,25.384 C340.724889,28.3226667 339.939556,31.692 339.939556,35.492 C339.939556,39.444 340.750222,42.8766667 342.371556,45.79 C343.992889,48.7033333 346.310889,50.9453333 349.325556,52.516 C352.340222,54.0866667 355.874222,54.872 359.927556,54.872 Z M365.703556,32.072 L351.035556,32.072 C351.288889,29.4373333 352.074222,27.4233333 353.391556,26.03 C354.708889,24.6366667 356.456889,23.94 358.635556,23.94 C360.814222,23.94 362.498889,24.624 363.689556,25.992 C364.880222,27.36 365.551556,29.3866667 365.703556,32.072 L365.703556,32.072 Z" transform="translate(176 35)"/>
    <rect width="128" height="128"/>
    <use fill="#000" xlink:href="#monogram-&amp;-wordmark---horizontal-a"/>
  </g>
</svg>
