<svg xmlns="http://www.w3.org/2000/svg" xmlns:xlink="http://www.w3.org/1999/xlink" width="321" height="128" viewBox="0 0 321 128">
  <defs>
    <path id="monogram-&amp;-wordmark---horizontal-a" d="M0,37.275 L0,0.925 L7.38445378,0.925 L7.38445378,31.1 L25.7457983,31.1 L25.7457983,37.275 L0,37.275 Z M29.5128676,19.175 C29.5128676,15.441648 30.0700224,12.308346 31.1843487,9.775 C32.0159355,7.908324 33.1510345,6.23334075 34.5896796,4.75 C36.0283248,3.26665925 37.6041581,2.16667025 39.3172269,1.45 C41.5957747,0.4833285 44.2235495,0 47.2006303,0 C52.5893127,0 56.9010255,1.67498325 60.1358981,5.025 C63.3707707,8.37501675 64.9881828,13.0333035 64.9881828,19 C64.9881828,24.9166963 63.3832443,29.5458166 60.1733193,32.8875 C56.9633943,36.2291834 52.6724708,37.9 47.3004202,37.9 C41.8618426,37.9 37.5376561,36.2375166 34.3277311,32.9125 C31.1178061,29.5874834 29.5128676,25.0083625 29.5128676,19.175 Z M37.1218487,18.925 C37.1218487,23.0750208 38.0781592,26.2208226 39.9908088,28.3625 C41.9034584,30.5041774 44.3316554,31.575 47.2754727,31.575 C50.2192899,31.575 52.6350133,30.5125106 54.5227153,28.3875 C56.4104174,26.2624894 57.3542542,23.0750212 57.3542542,18.825 C57.3542542,14.624979 56.4353646,11.491677 54.5975578,9.425 C52.759751,7.358323 50.3190803,6.325 47.2754727,6.325 C44.231865,6.325 41.7787208,7.37082287 39.9159664,9.4625 C38.053212,11.5541771 37.1218487,14.7083122 37.1218487,18.925 Z M87.7652311,23.8 L87.7652311,17.625 L103.681723,17.625 L103.681723,32.225 C102.134971,33.7250075 99.8938785,35.0458276 96.9583771,36.1875 C94.0228757,37.3291724 91.0499975,37.9 88.0396534,37.9 C84.2143541,37.9 80.8797411,37.0958414 78.0357143,35.4875 C75.1916875,33.8791586 73.0545415,31.5791816 71.6242122,28.5875 C70.1938829,25.5958184 69.478729,22.3416843 69.478729,18.825 C69.478729,15.0083143 70.2770403,11.6166815 71.873687,8.65 C73.4703336,5.6833185 75.8070574,3.40834125 78.8839286,1.825 C81.2290033,0.60832725 84.1478292,0 87.6404937,0 C92.1809576,0 95.727622,0.954157125 98.2805935,2.8625 C100.833565,4.77084287 102.475924,7.4083165 103.207721,10.775 L95.8731618,12.15 C95.357578,10.349991 94.3887939,8.92917188 92.9667805,7.8875 C91.544767,6.84582812 89.7693559,6.325 87.6404937,6.325 C84.4139369,6.325 81.8485302,7.34998975 79.9441964,9.4 C78.0398627,11.4500102 77.0877101,14.4916465 77.0877101,18.525 C77.0877101,22.8750217 78.0523363,26.1374891 79.9816176,28.3125 C81.910899,30.4875109 84.4388849,31.575 87.5656513,31.575 C89.1124027,31.575 90.6632888,31.2708364 92.2183561,30.6625 C93.7734234,30.0541636 95.1081002,29.316671 96.2224265,28.45 L96.2224265,23.8 L87.7652311,23.8 Z M108.995536,19.175 C108.995536,15.441648 109.552691,12.308346 110.667017,9.775 C111.498604,7.908324 112.633703,6.23334075 114.072348,4.75 C115.510993,3.26665925 117.086826,2.16667025 118.799895,1.45 C121.078443,0.4833285 123.706218,0 126.683298,0 C132.071981,0 136.383694,1.67498325 139.618566,5.025 C142.853439,8.37501675 144.470851,13.0333035 144.470851,19 C144.470851,24.9166963 142.865912,29.5458166 139.655987,32.8875 C136.446062,36.2291834 132.155139,37.9 126.783088,37.9 C121.344511,37.9 117.020324,36.2375166 113.810399,32.9125 C110.600474,29.5874834 108.995536,25.0083625 108.995536,19.175 Z M116.604517,18.925 C116.604517,23.0750208 117.560827,26.2208226 119.473477,28.3625 C121.386127,30.5041774 123.814324,31.575 126.758141,31.575 C129.701958,31.575 132.117681,30.5125106 134.005383,28.3875 C135.893085,26.2624894 136.836922,23.0750212 136.836922,18.825 C136.836922,14.624979 135.918033,11.491677 134.080226,9.425 C132.242419,7.358323 129.801748,6.325 126.758141,6.325 C123.714533,6.325 121.261389,7.37082287 119.398634,9.4625 C117.53588,11.5541771 116.604517,14.7083122 116.604517,18.925 Z"/>
    <path id="monogram-&amp;-wordmark---horizontal-c" d="M80.692,65.968 L113.182,75.101 L94.5283019,108.679245 L10,128 L34.1509434,84.5283019 L82.409,73.4974523 L80.692,65.968 Z M118.679245,7.10542736e-15 L94.5283019,43.4716981 L50.25,53.592 L52.169,62.004 L16.074,51.858 L34.1509434,19.3207547 L118.679245,7.10542736e-15 Z"/>
  </defs>
  <g fill="none" fill-rule="evenodd">
    <g transform="translate(176 45)">
      <mask id="monogram-&amp;-wordmark---horizontal-b" fill="#fff">
        <use xlink:href="#monogram-&amp;-wordmark---horizontal-a"/>
      </mask>
      <use fill="#FFF" fill-opacity="0" xlink:href="#monogram-&amp;-wordmark---horizontal-a"/>
      <g fill="#000" mask="url(#monogram-&amp;-wordmark---horizontal-b)">
        <rect width="145" height="128" transform="translate(0 -45)"/>
      </g>
    </g>
    <rect width="128" height="128"/>
    <mask id="monogram-&amp;-wordmark---horizontal-d" fill="#fff">
      <use xlink:href="#monogram-&amp;-wordmark---horizontal-c"/>
    </mask>
    <use fill="#FFF" fill-opacity="0" xlink:href="#monogram-&amp;-wordmark---horizontal-c"/>
    <g fill="#000" mask="url(#monogram-&amp;-wordmark---horizontal-d)">
      <rect width="128" height="128"/>
    </g>
  </g>
</svg>
