<svg xmlns="http://www.w3.org/2000/svg" xmlns:xlink="http://www.w3.org/1999/xlink" width="128" height="128" viewBox="0 0 128 128">
  <defs>
    <path id="monogram-a" d="M90.5582842,120 C91.6628537,120 92.5582842,120.895431 92.5582842,122 L92.5582842,128 L28.188398,128 L28.188398,122 C28.188398,120.895431 29.0838285,120 30.188398,120 L90.5582842,120 Z M87.4169223,1.2550917 C104.503592,6.1546155 114.383227,23.9779472 109.483703,41.0646173 C105.873386,53.6552872 95.245717,62.33269 83.0663203,64.0671801 C81.3231016,76.5645988 88.9971331,88.7613531 101.477137,92.3399367 L105.742244,93.5629365 C106.804025,93.8673971 107.417954,94.9749542 107.113493,96.0367346 L102.893219,110.75458 C102.588758,111.81636 101.481201,112.430289 100.419421,112.125828 L17.6376391,88.3885344 C16.5758588,88.0840738 15.9619298,86.9765166 16.2663904,85.9147363 L20.4866646,71.1968912 C20.7911252,70.1351109 21.8986823,69.5211819 22.9604627,69.8256426 L27.2255699,71.0486424 C39.705526,74.6272122 52.676717,68.3504571 57.8224147,56.8284149 C48.4117125,48.9037348 43.9970064,35.9127995 47.6073967,23.3218721 C52.5069205,6.23520199 70.3302522,-3.64443211 87.4169223,1.2550917 Z M53.7950273,25.0961466 C49.8754082,38.7654827 57.7791155,53.0241481 71.4484516,56.9437671 C85.1177877,60.8633862 99.3764531,52.9596789 103.296072,39.2903428 C107.215691,25.6210067 99.3119839,11.3623413 85.6426478,7.4427223 C71.9733117,3.52310325 57.7146463,11.4268105 53.7950273,25.0961466 Z M82.0940987,19.8179835 C88.9287668,21.777793 92.8806204,28.9071257 90.9208109,35.7417938 C88.9610014,42.5764618 81.8316687,46.5283154 74.9970006,44.5685059 C68.1623326,42.6086964 64.210479,35.4793637 66.1702885,28.6446957 C68.130098,21.8100276 75.2594307,17.858174 82.0940987,19.8179835 Z"/>
  </defs>
  <g fill="none" fill-rule="evenodd">
    <rect width="128" height="128"/>
    <use fill="#000" xlink:href="#monogram-a"/>
  </g>
</svg>
