<?xml version="1.0" encoding="UTF-8"?>
<svg width="24px" height="24px" viewBox="0 0 24 24" version="1.1" xmlns="http://www.w3.org/2000/svg" xmlns:xlink="http://www.w3.org/1999/xlink">
    <!-- Generator: Sketch 56.2 (81672) - https://sketch.com -->
    <title>icons / rounded / ~ view / list</title>
    <desc>Created with Sketch.</desc>
    <defs>
        <path d="M4,14 L6,14 C6.55,14 7,13.55 7,13 L7,11 C7,10.45 6.55,10 6,10 L4,10 C3.45,10 3,10.45 3,11 L3,13 C3,13.55 3.45,14 4,14 Z M4,20 L6,20 C6.55,20 7,19.55 7,19 L7,17 C7,16.45 6.55,16 6,16 L4,16 C3.45,16 3,16.45 3,17 L3,19 C3,19.55 3.45,20 4,20 Z M4,8 L6,8 C6.55,8 7,7.55 7,7 L7,5 C7,4.45 6.55,4 6,4 L4,4 C3.45,4 3,4.45 3,5 L3,7 C3,7.55 3.45,8 4,8 Z M10,14 L20,14 C20.55,14 21,13.55 21,13 L21,11 C21,10.45 20.55,10 20,10 L10,10 C9.45,10 9,10.45 9,11 L9,13 C9,13.55 9.45,14 10,14 Z M10,20 L20,20 C20.55,20 21,19.55 21,19 L21,17 C21,16.45 20.55,16 20,16 L10,16 C9.45,16 9,16.45 9,17 L9,19 C9,19.55 9.45,20 10,20 Z M9,5 L9,7 C9,7.55 9.45,8 10,8 L20,8 C20.55,8 21,7.55 21,7 L21,5 C21,4.45 20.55,4 20,4 L10,4 C9.45,4 9,4.45 9,5 Z" id="path-1"></path>
    </defs>
    <g id="icons-/-rounded-/-~-view-/-list" stroke="none" stroke-width="1" fill="none" fill-rule="evenodd">
        <g id="div">
            <polygon opacity="0.87" points="0 0 24 0 24 24 0 24"></polygon>
            <mask id="mask-2" fill="white">
                <use xlink:href="#path-1"></use>
            </mask>
            <use fill="#000000" xlink:href="#path-1"></use>
            <g id="colors-/-gray-/-black" mask="url(#mask-2)" fill="#000000">
                <rect id="div" x="0" y="0" width="24" height="24"></rect>
            </g>
        </g>
    </g>
</svg>