<?xml version="1.0" encoding="UTF-8"?>
<svg width="24px" height="24px" viewBox="0 0 24 24" version="1.1" xmlns="http://www.w3.org/2000/svg" xmlns:xlink="http://www.w3.org/1999/xlink">
    <!-- Generator: Sketch 55.2 (78181) - https://sketchapp.com -->
    <title>icons / brands / Dropbox</title>
    <desc>Created with Sketch.</desc>
    <defs>
        <path d="M7.5,4 L3,6.8665 L7.5,9.733 L12.00075,6.8665 L7.5,4 Z M16.5,4 L12,6.8665 L16.5,9.733 L21,6.8665 L16.5,4 Z M3,12.60025 L7.5,15.46675 L12.00075,12.60025 L7.5,9.73375 L3,12.60025 L3,12.60025 Z M16.5,9.73375 L12,12.60025 L16.5,15.46675 L21,12.60025 L16.5,9.73375 L16.5,9.73375 Z M7.5,16.423 L12.00075,19.2895 L16.50075,16.423 L12.00075,13.5565 L7.5,16.423 Z" id="path-1"></path>
    </defs>
    <g id="icons-/-brands-/-Dropbox" stroke="none" stroke-width="1" fill="none" fill-rule="evenodd">
        <g id="div">
            <polygon points="0 0 24 0 24 24 0 24"></polygon>
            <mask id="mask-2" fill="white">
                <use xlink:href="#path-1"></use>
            </mask>
            <use fill="#000000" xlink:href="#path-1"></use>
            <g id="colors-/-gray-/-black" mask="url(#mask-2)" fill="#000000">
                <rect id="div" x="0" y="0" width="24" height="24"></rect>
            </g>
        </g>
    </g>
</svg>