<?xml version="1.0" encoding="UTF-8"?>
<svg width="24px" height="24px" viewBox="0 0 24 24" version="1.1" xmlns="http://www.w3.org/2000/svg" xmlns:xlink="http://www.w3.org/1999/xlink">
    <!-- Generator: Sketch 56.2 (81672) - https://sketch.com -->
    <title>icons / brands / Flickr</title>
    <desc>Created with Sketch.</desc>
    <defs>
        <path d="M3,12.173 C3,14.4785 4.8705,16.346 7.17375,16.346 C9.48,16.346 11.3505,14.4785 11.3505,12.173 C11.3505,9.8675 9.48075,8 7.17375,8 C4.87125,8 3,9.8675 3,12.173 Z M12.6495,12.173 C12.6495,14.4785 14.51925,16.346 16.82475,16.346 C19.122,16.346 21,14.4785 21,12.173 C21,9.8675 19.131,8 16.827,8 C14.52075,8 12.6495,9.8675 12.6495,12.173 Z" id="path-1"></path>
    </defs>
    <g id="icons-/-brands-/-Flickr" stroke="none" stroke-width="1" fill="none" fill-rule="evenodd">
        <g id="div">
            <polygon points="0 0 24 0 24 24 0 24"></polygon>
            <mask id="mask-2" fill="white">
                <use xlink:href="#path-1"></use>
            </mask>
            <use fill="#000000" xlink:href="#path-1"></use>
            <g id="colors-/-gray-/-black" mask="url(#mask-2)" fill="#000000">
                <rect id="div" x="0" y="0" width="24" height="24"></rect>
            </g>
        </g>
    </g>
</svg>