<?xml version="1.0" encoding="UTF-8"?>
<svg width="24px" height="24px" viewBox="0 0 24 24" version="1.1" xmlns="http://www.w3.org/2000/svg" xmlns:xlink="http://www.w3.org/1999/xlink">
    <!-- Generator: Sketch 56.2 (81672) - https://sketch.com -->
    <title>icons / brands / Google Chrome</title>
    <desc>Created with Sketch.</desc>
    <defs>
        <path d="M15.1605,9.5175 L20.19675,8.25825 C20.7261183,9.42724294 21,10.6957326 21,11.979 C21,16.9275 16.92675,21 11.976,21 C11.7495,21 11.52225,20.99175 11.29575,20.9745 L14.9745,14.71425 C15.2415,14.43225 15.46575,14.112 15.63525,13.761 C16.1692041,12.6314325 16.1573246,11.3197115 15.603,10.2 C15.4799032,9.95757668 15.3315829,9.72881148 15.1605,9.5175 Z M12.7305,15.94875 L11.13975,20.96025 C6.5535,20.50875 3,16.605 3,11.98275 C3,10.194 3.53175,8.445 4.5285,6.95925 L8.154,13.242 C8.289,13.64625 8.99325,15.17775 10.45425,15.73725 C11.20275,16.02375 11.985,16.098 12.7305,15.94875 Z M11.97975,8.71494205 C10.47525,8.72925 9.07125,9.873 8.769,11.349 C8.55449886,12.4486473 8.9024654,13.5828438 9.69675,14.373 C10.60725,15.2625 12.05175,15.5565 13.24725,15.06825 C14.30325,14.63625 15.09975,13.623 15.2655,12.495 C15.4695,11.103 14.6745,9.621 13.39425,9.02325 C12.951274,8.81737752 12.4682199,8.71210964 11.97975,8.71494205 L11.97975,8.71494205 Z M8.2845,10.4715 L4.69425,6.72225 C6.39312847,4.38460118 9.1079768,3.00097084 11.99775,3 C15.41775,3 18.55575,4.944 20.07825,8.00625 L12.4185,8.00625 C11.06025,7.9125 9.9525,8.39625 9.21975,9.096 C8.81526056,9.48406925 8.49665315,9.95265465 8.2845,10.4715 L8.2845,10.4715 Z" id="path-1"></path>
    </defs>
    <g id="icons-/-brands-/-Google-Chrome" stroke="none" stroke-width="1" fill="none" fill-rule="evenodd">
        <g id="div">
            <polygon points="0 0 24 0 24 24 0 24"></polygon>
            <mask id="mask-2" fill="white">
                <use xlink:href="#path-1"></use>
            </mask>
            <use fill="#000000" xlink:href="#path-1"></use>
            <g id="colors-/-gray-/-black" mask="url(#mask-2)" fill="#000000">
                <rect id="div" x="0" y="0" width="24" height="24"></rect>
            </g>
        </g>
    </g>
</svg>