<?xml version="1.0" encoding="UTF-8"?>
<svg width="24px" height="24px" viewBox="0 0 24 24" version="1.1" xmlns="http://www.w3.org/2000/svg" xmlns:xlink="http://www.w3.org/1999/xlink">
    <!-- Generator: Sketch 56.2 (81672) - https://sketch.com -->
    <title>icons / brands / PlayStation</title>
    <desc>Created with Sketch.</desc>
    <defs>
        <path d="M9.73813293,5 L9.73813293,18.160651 L12.6743051,19.1063759 L12.6743051,8.06891862 C12.6743051,7.55143234 12.902299,7.20569151 13.2697893,7.32568833 C13.7467766,7.46143473 13.8397742,7.93617214 13.8397742,8.4544084 L13.8397742,12.8612915 C15.6704756,13.7560178 17.1111874,12.8597916 17.1111874,10.4966042 C17.1111874,8.06891862 16.2667098,6.99044722 13.7827757,6.12647013 C12.8025517,5.79047904 10.9868498,5.23699372 9.73963289,5 L9.73813293,5 Z M13.2300403,17.181177 L17.9519151,15.4749722 C18.4881509,15.2814774 18.5713987,15.0062347 18.1364102,14.8614885 C17.6969219,14.7174923 16.9086928,14.7572413 16.3687071,14.953736 L13.2150407,16.0779562 L13.2150407,14.2892537 L13.395036,14.2255054 C13.395036,14.2255054 14.2957621,13.9105137 15.579728,13.7642676 C16.8516943,13.6292712 18.4184027,13.786017 19.6573699,14.2600044 C21.0433331,14.7107425 21.1880793,15.3639752 20.8393385,15.8139632 C20.4905978,16.2639513 19.6228708,16.5909426 19.6228708,16.5909426 L13.2150407,18.9211308 L13.2150407,17.1984265 L13.2300403,17.181177 Z M4.35552566,17.0026817 C2.93056345,16.5939426 2.69506969,15.7517149 3.34155255,15.2619779 C3.94228662,14.8232395 4.96075961,14.4737488 4.96075961,14.4737488 L9.17264792,12.9640388 L9.17264792,14.6987428 L6.15397797,15.8027135 C5.62524199,16.0059581 5.53524438,16.276701 5.97473272,16.4221971 C6.41422107,16.5684432 7.20245017,16.5346941 7.73193613,16.3321995 L9.18539758,15.8027135 L9.18539758,17.3581723 C9.09464999,17.3799217 8.99340267,17.3911714 8.89215536,17.4129208 C7.4386939,17.6611643 5.89598481,17.5599169 4.36452542,17.0536804 L4.35552566,17.0026817 L4.35552566,17.0026817 Z" id="path-1"></path>
    </defs>
    <g id="icons-/-brands-/-PlayStation" stroke="none" stroke-width="1" fill="none" fill-rule="evenodd">
        <g id="div">
            <polygon points="0 0 24 0 24 24 0 24"></polygon>
            <mask id="mask-2" fill="white">
                <use xlink:href="#path-1"></use>
            </mask>
            <use fill="#000000" xlink:href="#path-1"></use>
            <g id="colors-/-gray-/-black" mask="url(#mask-2)" fill="#000000">
                <rect id="div" x="0" y="0" width="24" height="24"></rect>
            </g>
        </g>
    </g>
</svg>