<?xml version="1.0" encoding="UTF-8"?>
<svg width="24px" height="24px" viewBox="0 0 24 24" version="1.1" xmlns="http://www.w3.org/2000/svg" xmlns:xlink="http://www.w3.org/1999/xlink">
    <!-- Generator: Sketch 56.2 (81672) - https://sketch.com -->
    <title>icons / brands / Telegram</title>
    <desc>Created with Sketch.</desc>
    <defs>
        <path d="M20.9451934,5.40167537 L18.2367377,18.1936891 C18.0491716,19.1015094 17.5014783,19.3190862 16.7362083,18.898938 L12.6097522,15.8453605 L10.614048,17.7735409 C10.3889686,17.9986203 10.2014024,18.1936891 9.78875681,18.1936891 C9.2485662,18.1936891 9.33859797,17.9911176 9.15853443,17.4809376 L7.73303144,12.8367989 L3.64408863,11.5613488 C2.75877624,11.2987562 2.75127359,10.6910418 3.83915746,10.2483856 L19.7897857,4.09621473 C20.5175425,3.77360089 21.2152887,4.27627826 20.9376908,5.39417272 L20.9451934,5.40167537 Z" id="path-1"></path>
    </defs>
    <g id="icons-/-brands-/-Telegram" stroke="none" stroke-width="1" fill="none" fill-rule="evenodd">
        <g id="div">
            <polygon points="0 0 24 0 24 24 0 24"></polygon>
            <mask id="mask-2" fill="white">
                <use xlink:href="#path-1"></use>
            </mask>
            <use fill="#000000" xlink:href="#path-1"></use>
            <g id="colors-/-gray-/-black" mask="url(#mask-2)" fill="#000000">
                <rect id="div" x="0" y="0" width="24" height="24"></rect>
            </g>
        </g>
    </g>
</svg>