<?xml version="1.0" encoding="UTF-8"?>
<svg width="24px" height="24px" viewBox="0 0 24 24" version="1.1" xmlns="http://www.w3.org/2000/svg" xmlns:xlink="http://www.w3.org/1999/xlink">
    <!-- Generator: Sketch 56.2 (81672) - https://sketch.com -->
    <title>icons / rounded / ~ player / mic ~ off</title>
    <desc>Created with Sketch.</desc>
    <defs>
        <path d="M14.5825,11.6 L14.5825,6 C14.5825,4.34 13.2425,3 11.5825,3 C10.0425,3 8.7925,4.16 8.6225,5.65 L14.5825,11.6 Z M17.6625,12 C17.2525,12 16.8925,12.3 16.8325,12.71 C16.7825,13.03 16.7125,13.35 16.6125,13.64 L17.8825,14.91 C18.1825,14.31 18.4025,13.66 18.5125,12.97 C18.5825,12.46 18.1825,12 17.6625,12 Z M3.2925,4.56 C2.9025,4.95 2.9025,5.58 3.2925,5.97 L8.5825,11.27 L8.5825,11.7 C8.5825,12.89 9.1825,14.02 10.2125,14.61 C10.9625,15.04 11.6225,15.05 12.2325,14.92 L13.8925,16.58 C13.1825,16.91 12.3925,17.1 11.5825,17.1 C9.0425,17.1 6.7025,15.33 6.3325,12.71 C6.2725,12.3 5.9125,12 5.5025,12 C4.9825,12 4.5825,12.46 4.6525,12.97 C5.1125,15.93 7.6125,18.27 10.5825,18.72 L10.5825,21 C10.5825,21.55 11.0325,22 11.5825,22 C12.1325,22 12.5825,21.55 12.5825,21 L12.5825,18.72 C13.4925,18.59 14.3525,18.27 15.1325,17.82 L18.6225,21.31 C19.0125,21.7 19.6425,21.7 20.0325,21.31 C20.4225,20.92 20.4225,20.29 20.0325,19.9 L4.7025,4.56 C4.3125,4.17 3.6825,4.17 3.2925,4.56 Z" id="path-1"></path>
    </defs>
    <g id="icons-/-rounded-/-~-player-/-mic-~-off" stroke="none" stroke-width="1" fill="none" fill-rule="evenodd">
        <g id="div">
            <polygon points="0 0 24 0 24 24 0 24"></polygon>
            <mask id="mask-2" fill="white">
                <use xlink:href="#path-1"></use>
            </mask>
            <use fill="#000000" xlink:href="#path-1"></use>
            <g id="colors-/-gray-/-black" mask="url(#mask-2)" fill="#000000">
                <rect id="div" x="0" y="0" width="24" height="24"></rect>
            </g>
        </g>
    </g>
</svg>