<?xml version="1.0" encoding="UTF-8"?>
<svg width="24px" height="24px" viewBox="0 0 24 24" version="1.1" xmlns="http://www.w3.org/2000/svg" xmlns:xlink="http://www.w3.org/1999/xlink">
    <!-- Generator: Sketch 55.2 (78181) - https://sketchapp.com -->
    <title>icons / rounded / ~ player / volume</title>
    <desc>Created with Sketch.</desc>
    <defs>
        <path d="M18.5,12 C18.5,10.23 17.48,8.71 16,7.97 L16,16.02 C17.48,15.29 18.5,13.77 18.5,12 Z M5,10 L5,14 C5,14.55 5.45,15 6,15 L9,15 L12.29,18.29 C12.92,18.92 14,18.47 14,17.58 L14,6.41 C14,5.52 12.92,5.07 12.29,5.7 L9,9 L6,9 C5.45,9 5,9.45 5,10 Z" id="path-1"></path>
    </defs>
    <g id="icons-/-rounded-/-~-player-/-volume" stroke="none" stroke-width="1" fill="none" fill-rule="evenodd">
        <g id="div">
            <polygon opacity="0.87" points="24 24 0 24 0 0 24 0"></polygon>
            <mask id="mask-2" fill="white">
                <use xlink:href="#path-1"></use>
            </mask>
            <use fill="#000000" xlink:href="#path-1"></use>
            <g id="colors-/-gray-/-black" mask="url(#mask-2)" fill="#000000">
                <rect id="div" x="0" y="0" width="24" height="24"></rect>
            </g>
        </g>
    </g>
</svg>