<?xml version="1.0" encoding="UTF-8"?>
<svg width="24px" height="24px" viewBox="0 0 24 24" version="1.1" xmlns="http://www.w3.org/2000/svg" xmlns:xlink="http://www.w3.org/1999/xlink">
    <!-- Generator: Sketch 56.2 (81672) - https://sketch.com -->
    <title>icons / sharp / ~ player / fullscreen</title>
    <desc>Created with Sketch.</desc>
    <defs>
        <path d="M7,14 L5,14 L5,19 L10,19 L10,17 L7,17 L7,14 Z M5,10 L7,10 L7,7 L10,7 L10,5 L5,5 L5,10 Z M17,17 L14,17 L14,19 L19,19 L19,14 L17,14 L17,17 Z M14,5 L14,7 L17,7 L17,10 L19,10 L19,5 L14,5 Z" id="path-1"></path>
    </defs>
    <g id="icons-/-sharp-/-~-player-/-fullscreen" stroke="none" stroke-width="1" fill="none" fill-rule="evenodd">
        <g id="div">
            <polygon points="0 0 24 0 24 24 0 24"></polygon>
            <mask id="mask-2" fill="white">
                <use xlink:href="#path-1"></use>
            </mask>
            <use fill="#000000" xlink:href="#path-1"></use>
            <g id="colors-/-gray-/-black" mask="url(#mask-2)" fill="#000000">
                <rect id="div" x="0" y="0" width="24" height="24"></rect>
            </g>
        </g>
    </g>
</svg>