<?xml version="1.0" encoding="UTF-8"?>
<svg width="24px" height="24px" viewBox="0 0 24 24" version="1.1" xmlns="http://www.w3.org/2000/svg" xmlns:xlink="http://www.w3.org/1999/xlink">
    <!-- Generator: Sketch 55.2 (78181) - https://sketchapp.com -->
    <title>icons / rounded / cancel, close</title>
    <desc>Created with Sketch.</desc>
    <defs>
        <path d="M18.3,5.71 C17.91,5.32 17.28,5.32 16.89,5.71 L12,10.59 L7.11,5.7 C6.72,5.31 6.09,5.31 5.7,5.7 C5.31,6.09 5.31,6.72 5.7,7.11 L10.59,12 L5.7,16.89 C5.31,17.28 5.31,17.91 5.7,18.3 C6.09,18.69 6.72,18.69 7.11,18.3 L12,13.41 L16.89,18.3 C17.28,18.69 17.91,18.69 18.3,18.3 C18.69,17.91 18.69,17.28 18.3,16.89 L13.41,12 L18.3,7.11 C18.68,6.73 18.68,6.09 18.3,5.71 Z" id="path-1"></path>
    </defs>
    <g id="icons-/-rounded-/-cancel,-close" stroke="none" stroke-width="1" fill="none" fill-rule="evenodd">
        <g id="div">
            <polygon points="0 0 24 0 24 24 0 24"></polygon>
            <mask id="mask-2" fill="white">
                <use xlink:href="#path-1"></use>
            </mask>
            <use fill="#000000" xlink:href="#path-1"></use>
            <g id="colors-/-gray-/-black" mask="url(#mask-2)" fill="#000000">
                <rect id="div" x="0" y="0" width="24" height="24"></rect>
            </g>
        </g>
    </g>
</svg>