<?xml version="1.0" encoding="UTF-8"?>
<svg width="24px" height="24px" viewBox="0 0 24 24" version="1.1" xmlns="http://www.w3.org/2000/svg" xmlns:xlink="http://www.w3.org/1999/xlink">
    <!-- Generator: Sketch 55.2 (78181) - https://sketchapp.com -->
    <title>icons / rounded / favorite</title>
    <desc>Created with Sketch.</desc>
    <defs>
        <path d="M13.35,20.13 C12.59,20.82 11.42,20.82 10.66,20.12 L10.55,20.02 C5.3,15.27 1.87,12.16 2,8.28 C2.06,6.58 2.93,4.95 4.34,3.99 C6.98,2.19 10.24,3.03 12,5.09 C13.76,3.03 17.02,2.18 19.66,3.99 C21.07,4.95 21.94,6.58 22,8.28 C22.14,12.16 18.7,15.27 13.45,20.04 L13.35,20.13 Z" id="path-1"></path>
    </defs>
    <g id="icons-/-rounded-/-favorite" stroke="none" stroke-width="1" fill="none" fill-rule="evenodd">
        <g id="div">
            <polygon points="0 0 24 0 24 24 0 24"></polygon>
            <mask id="mask-2" fill="white">
                <use xlink:href="#path-1"></use>
            </mask>
            <use fill="#000000" xlink:href="#path-1"></use>
            <g id="colors-/-gray-/-black" mask="url(#mask-2)" fill="#000000">
                <rect id="div" x="0" y="0" width="24" height="24"></rect>
            </g>
        </g>
    </g>
</svg>