<?xml version="1.0" encoding="UTF-8"?>
<svg width="24px" height="24px" viewBox="0 0 24 24" version="1.1" xmlns="http://www.w3.org/2000/svg" xmlns:xlink="http://www.w3.org/1999/xlink">
    <!-- Generator: Sketch 55.2 (78181) - https://sketchapp.com -->
    <title>icons / rounded / help</title>
    <desc>Created with Sketch.</desc>
    <defs>
        <path d="M12,2 C17.52,2 22,6.48 22,12 C22,17.52 17.52,22 12,22 C6.48,22 2,17.52 2,12 C2,6.48 6.48,2 12,2 Z M11.9945455,18.9927273 C12.5458261,18.9927273 12.9927273,18.5458261 12.9927273,17.9945455 C12.9927273,17.4432649 12.5458261,16.9963636 11.9945455,16.9963636 C11.4432649,16.9963636 10.9963636,17.4432649 10.9963636,17.9945455 C10.9963636,18.5458261 11.4432649,18.9927273 11.9945455,18.9927273 Z M15.07,11.25 C16.09,10.23 16.44,8.48 15.26,6.85 C14.36,5.6 12.91,4.81 11.39,5.05 C9.84,5.29 8.59,6.41 8.16,7.88 C8,8.44 8.4,9 8.98,9 L9.28,9 C9.67,9 9.98,8.72 10.1,8.35 C10.43,7.4 11.46,6.77 12.57,7.08 C13.27,7.28 13.83,7.89 13.96,8.61 C14.09,9.31 13.87,9.97 13.41,10.41 L12.17,11.67 C11.75,12.09 11.42,12.61 11.22,13.19 C11.08,13.6 11,14.04 11,14.5 L11,15 L13,15 C13,14.54 13.05,14.18 13.13,13.86 C13.31,13.14 13.67,12.68 14.17,12.17 L15.07,11.25 Z" id="path-1"></path>
    </defs>
    <g id="icons-/-rounded-/-help" stroke="none" stroke-width="1" fill="none" fill-rule="evenodd">
        <g id="div">
            <polygon points="0 0 24 0 24 24 0 24"></polygon>
            <mask id="mask-2" fill="white">
                <use xlink:href="#path-1"></use>
            </mask>
            <use fill="#000000" xlink:href="#path-1"></use>
            <g id="colors-/-gray-/-black" mask="url(#mask-2)" fill="#000000">
                <rect id="div" x="0" y="0" width="24" height="24"></rect>
            </g>
        </g>
    </g>
</svg>