<?xml version="1.0" encoding="UTF-8"?>
<svg width="24px" height="24px" viewBox="0 0 24 24" version="1.1" xmlns="http://www.w3.org/2000/svg" xmlns:xlink="http://www.w3.org/1999/xlink">
    <!-- Generator: Sketch 55.2 (78181) - https://sketchapp.com -->
    <title>icons / rounded / info</title>
    <desc>Created with Sketch.</desc>
    <defs>
        <path d="M12,2 C6.48,2 2,6.48 2,12 C2,17.52 6.48,22 12,22 C17.52,22 22,17.52 22,12 C22,6.48 17.52,2 12,2 Z M12,17 C11.45,17 11,16.55 11,16 L11,12 C11,11.45 11.45,11 12,11 C12.55,11 13,11.45 13,12 L13,16 C13,16.55 12.55,17 12,17 Z M11.9945455,9 C11.4432649,9 10.9963636,8.55309878 10.9963636,8.00181818 C10.9963636,7.45053759 11.4432649,7.00363636 11.9945455,7.00363636 C12.5458261,7.00363636 12.9927273,7.45053759 12.9927273,8.00181818 C12.9927273,8.55309878 12.5458261,9 11.9945455,9 Z" id="path-1"></path>
    </defs>
    <g id="icons-/-rounded-/-info" stroke="none" stroke-width="1" fill="none" fill-rule="evenodd">
        <g id="div">
            <polygon points="0 0 24 0 24 24 0 24"></polygon>
            <mask id="mask-2" fill="white">
                <use xlink:href="#path-1"></use>
            </mask>
            <use fill="#000000" xlink:href="#path-1"></use>
            <g id="colors-/-gray-/-black" mask="url(#mask-2)" fill="#000000">
                <rect id="div" x="0" y="0" width="24" height="24"></rect>
            </g>
        </g>
    </g>
</svg>