<?xml version="1.0" encoding="UTF-8"?>
<svg width="24px" height="24px" viewBox="0 0 24 24" version="1.1" xmlns="http://www.w3.org/2000/svg" xmlns:xlink="http://www.w3.org/1999/xlink">
    <!-- Generator: Sketch 55.2 (78181) - https://sketchapp.com -->
    <title>icons / rounded / like, thumb</title>
    <desc>Created with Sketch.</desc>
    <defs>
        <path d="M13.12,2.06 L7.58,7.6 C7.21,7.97 7,8.48 7,9.01 L7,19 C7,20.1 7.9,21 9,21 L18,21 C18.8,21 19.52,20.52 19.84,19.79 L23.1,12.18 C23.94,10.2 22.49,8 20.34,8 L14.69,8 L15.64,3.42 C15.74,2.92 15.59,2.41 15.23,2.05 C14.64,1.47 13.7,1.47 13.12,2.06 Z M3,21 C4.1,21 5,20.1 5,19 L5,11 C5,9.9 4.1,9 3,9 C1.9,9 1,9.9 1,11 L1,19 C1,20.1 1.9,21 3,21 Z" id="path-1"></path>
    </defs>
    <g id="icons-/-rounded-/-like,-thumb" stroke="none" stroke-width="1" fill="none" fill-rule="evenodd">
        <g id="div">
            <polygon opacity="0.87" points="0 0 24 0 24 24 0 24"></polygon>
            <mask id="mask-2" fill="white">
                <use xlink:href="#path-1"></use>
            </mask>
            <use fill="#000000" xlink:href="#path-1"></use>
            <g id="colors-/-gray-/-black" mask="url(#mask-2)" fill="#000000">
                <rect id="div" x="0" y="0" width="24" height="24"></rect>
            </g>
        </g>
    </g>
</svg>