<?xml version="1.0" encoding="UTF-8"?>
<svg width="24px" height="24px" viewBox="0 0 24 24" version="1.1" xmlns="http://www.w3.org/2000/svg" xmlns:xlink="http://www.w3.org/1999/xlink">
    <!-- Generator: Sketch 55.2 (78181) - https://sketchapp.com -->
    <title>icons / rounded / security, verified user</title>
    <desc>Created with Sketch.</desc>
    <defs>
        <path d="M11.19,1.36 L4.19,4.47 C3.47,4.79 3,5.51 3,6.3 L3,11 C3,16.55 6.84,21.74 12,23 C17.16,21.74 21,16.55 21,11 L21,6.3 C21,5.51 20.53,4.79 19.81,4.47 L12.81,1.36 C12.3,1.13 11.7,1.13 11.19,1.36 Z M9.29,16.29 L6.7,13.7 C6.31,13.31 6.31,12.68 6.7,12.29 C7.09,11.9 7.72,11.9 8.11,12.29 L10,14.17 L15.88,8.29 C16.27,7.9 16.9,7.9 17.29,8.29 C17.68,8.68 17.68,9.31 17.29,9.7 L10.7,16.29 C10.32,16.68 9.68,16.68 9.29,16.29 Z" id="path-1"></path>
    </defs>
    <g id="icons-/-rounded-/-security,-verified-user" stroke="none" stroke-width="1" fill="none" fill-rule="evenodd">
        <g id="div">
            <polygon points="0 0 24 0 24 24 0 24"></polygon>
            <mask id="mask-2" fill="white">
                <use xlink:href="#path-1"></use>
            </mask>
            <use fill="#000000" xlink:href="#path-1"></use>
            <g id="colors-/-gray-/-black" mask="url(#mask-2)" fill="#000000">
                <rect id="div" x="0" y="0" width="24" height="24"></rect>
            </g>
        </g>
    </g>
</svg>