<?xml version="1.0" encoding="UTF-8"?>
<svg width="240px" height="240px" viewBox="0 0 240 240" version="1.1" xmlns="http://www.w3.org/2000/svg" xmlns:xlink="http://www.w3.org/1999/xlink">
    <!-- Generator: Sketch 56.2 (81672) - https://sketch.com -->
    <title>branding / project / 480x480 / gray-dark-70</title>
    <desc>Created with Sketch.</desc>
    <defs>
        <path d="M27.8805296,120.411751 L90.9630182,120.411751 L90.9630182,126.72 L27.8805296,126.72 L27.8805296,120.411751 Z M81.6837125,64.066019 C79.9769878,76.3138603 87.4974736,88.2662072 99.7275944,91.7731379 L75.4720824,84.8179818 L81.4118617,64.1035097 L75.4720824,84.8179818 L103.868949,92.9606522 C104.930729,93.2651129 105.544658,94.37267 105.240198,95.4344504 L101.12638,109.781038 C100.821919,110.842818 99.7143622,111.456747 98.6525819,111.152286 L17.6033368,87.9117892 C16.5415564,87.6073286 15.9276275,86.4997714 16.2320881,85.4379911 L20.3459058,71.0914039 C20.6503664,70.0296235 21.7579235,69.4156946 22.8197039,69.7201552 L51.2165705,77.8628257 L26.9610585,70.9076695 C39.1911793,74.4146002 51.9026918,68.2636855 56.9456743,56.9725007 C47.7236109,49.2060506 43.397012,36.4747327 46.9352488,24.1354346 C51.7367821,7.39049795 69.2036472,-2.29154347 85.9485839,2.50998986 C102.693521,7.31152319 112.375562,24.7783883 107.574029,41.523325 C104.035792,53.8626231 93.6200572,62.3666448 81.6837125,64.066019 Z M70.2994826,57.0848918 C83.6954319,60.9261184 97.668924,53.1804853 101.510151,39.7845359 C105.351377,26.3885866 97.6057442,12.4150945 84.2097948,8.57386785 C70.8138455,4.73264119 56.8403534,12.4782743 52.9991267,25.8742237 C49.1579001,39.270173 56.9035332,53.2436651 70.2994826,57.0848918 Z M73.7770606,44.9571358 C67.079086,43.0365225 63.2062694,36.0497764 65.1268827,29.3518017 C67.0474961,22.6538271 74.0342421,18.7810105 80.7322168,20.7016238 C87.4301914,22.6222372 91.303008,29.6089832 89.3823947,36.3069579 C87.4617813,43.0049326 80.4750353,46.8777491 73.7770606,44.9571358 Z" id="path-1"></path>
    </defs>
    <g id="~-settings-&amp;-branding" stroke="none" stroke-width="1" fill="none" fill-rule="evenodd">
        <g id="branding-/-project-/-480x480-/-all">
            <g id="branding-/-project-/-480x480-/-gray-dark-70">
                <g id="colors-/-gray-/-gray-dark-70">
                    <g id="div">
                        <rect fill="#707074" x="0" y="0" width="240" height="240"></rect>
                        <rect fill-opacity="0.7" fill="#000000" x="0" y="0" width="240" height="240"></rect>
                    </g>
                </g>
                <g id="branding-/-~-project-logo" transform="translate(56.000000, 56.000000)">
                    <g id="div">
                        <rect fill="#707074" opacity="0" x="0" y="0" width="128" height="128"></rect>
                        <mask id="mask-2" fill="white">
                            <use xlink:href="#path-1"></use>
                        </mask>
                        <use fill="#000000" xlink:href="#path-1"></use>
                        <g id="colors-/-gray-/-gray-light-70" mask="url(#mask-2)">
                            <g id="div">
                                <rect fill="#707074" x="0" y="0" width="128" height="128"></rect>
                                <rect fill-opacity="0.7" fill="#FFFFFF" x="0" y="0" width="128" height="128"></rect>
                            </g>
                        </g>
                    </g>
                </g>
            </g>
        </g>
    </g>
</svg>