<?xml version="1.0" encoding="UTF-8"?>
<svg width="24px" height="24px" viewBox="0 0 24 24" version="1.1" xmlns="http://www.w3.org/2000/svg" xmlns:xlink="http://www.w3.org/1999/xlink">
    <!-- Generator: Sketch 56.2 (81672) - https://sketch.com -->
    <title>icons / brands / Messenger</title>
    <desc>Created with Sketch.</desc>
    <defs>
        <path d="M3.0007662,11.7296284 C3.0007662,6.71234197 6.93059891,3 12.0003831,3 C17.0701673,3 21,6.71234197 21,11.7296284 C21,16.7469148 17.0701673,20.4592568 12.0003831,20.4592568 C11.0929217,20.4592568 10.2154591,20.3392619 9.39799388,20.1142715 C9.23843795,20.0713221 9.06896424,20.0845623 8.91801431,20.1517699 L7.12559061,20.9392364 C6.90615595,21.0369091 6.65246534,21.0187213 6.44920814,20.8907445 C6.24595095,20.7627678 6.11989959,20.5418588 6.11313371,20.3017635 L6.06063595,18.6968318 C6.05241796,18.5014967 5.96592121,18.3176912 5.82064616,18.1868535 C3.99539779,16.5404282 2.96787344,14.1875067 3.0007662,11.7296284 Z M9.24050058,10.0871983 L6.60061296,14.2870195 C6.33812413,14.6845026 6.84060274,15.1419831 7.21558678,14.8494956 L10.0579658,12.6970872 C10.2529575,12.5470936 10.5079466,12.5470936 10.710438,12.6970872 L12.8103486,14.2720202 C13.4403218,14.7445001 14.3402835,14.5720074 14.7602656,13.9120355 L17.4001532,9.71221427 C17.6626421,9.31473119 17.1601635,8.86475035 16.7851794,9.14973821 L13.9428004,11.3021466 C13.7553084,11.4521402 13.4928196,11.4521402 13.2978279,11.3021466 L11.1979173,9.72721363 C10.8959884,9.49912155 10.5121886,9.40822356 10.1400293,9.47666665 C9.76786996,9.54510974 9.44152258,9.76660952 9.24050058,10.0871983 Z" id="path-1"></path>
    </defs>
    <g id="icons-/-brands-/-Messenger" stroke="none" stroke-width="1" fill="none" fill-rule="evenodd">
        <g id="div">
            <polygon points="0 0 24 0 24 24 0 24"></polygon>
            <mask id="mask-2" fill="white">
                <use xlink:href="#path-1"></use>
            </mask>
            <use fill="#000000" xlink:href="#path-1"></use>
            <g id="colors-/-gray-/-black" mask="url(#mask-2)" fill="#000000">
                <rect id="div" x="0" y="0" width="24" height="24"></rect>
            </g>
        </g>
    </g>
</svg>