<?xml version="1.0" encoding="UTF-8"?>
<svg width="24px" height="24px" viewBox="0 0 24 24" version="1.1" xmlns="http://www.w3.org/2000/svg" xmlns:xlink="http://www.w3.org/1999/xlink">
    <!-- Generator: Sketch 56.2 (81672) - https://sketch.com -->
    <title>icons / sharp / link</title>
    <desc>Created with Sketch.</desc>
    <defs>
        <path d="M17,7 C19.76,7 22,9.24 22,12 C22,14.76 19.76,17 17,17 L13,17 L13,15 L17,15 C18.65,15 20,13.65 20,12 C20,10.35 18.65,9 17,9 L13,9 L13,7 L17,7 Z M11,15 L11,17 L7,17 C4.24,17 2,14.76 2,12 C2,9.24 4.24,7 7,7 L11,7 L11,9 L7,9 C5.35,9 4,10.35 4,12 C4,13.65 5.35,15 7,15 L11,15 Z M8,11 L16,11 L16,13 L8,13 L8,11 Z" id="path-1"></path>
    </defs>
    <g id="icons-/-sharp-/-link" stroke="none" stroke-width="1" fill="none" fill-rule="evenodd">
        <g id="div">
            <polygon points="0 0 24 0 24 24 0 24"></polygon>
            <mask id="mask-2" fill="white">
                <use xlink:href="#path-1"></use>
            </mask>
            <use fill="#000000" xlink:href="#path-1"></use>
            <g id="colors-/-gray-/-black" mask="url(#mask-2)" fill="#000000">
                <rect id="div" x="0" y="0" width="24" height="24"></rect>
            </g>
        </g>
    </g>
</svg>