<svg xmlns="http://www.w3.org/2000/svg" xmlns:xlink="http://www.w3.org/1999/xlink" width="100" height="24" viewBox="0 0 100 24">
  <defs>
    <path id="1-project-logo-with-text-a" d="M17.056 22.577v1.183H5.228v-1.183h11.828zM16.116.471a5.914 5.914 0 0 1-.8 11.541 4.73 4.73 0 0 0 3.383 5.195l-.569-.163a1.774 1.774 0 0 1-.978 3.411L4.646 16.87a1.774 1.774 0 0 1 .978-3.41l-.569-.164a4.732 4.732 0 0 0 5.623-2.613A5.914 5.914 0 0 1 16.116.47zM9.936 4.85a4.731 4.731 0 1 0 9.096 2.609A4.731 4.731 0 0 0 9.937 4.85zm5.2-.97a2.366 2.366 0 1 1-1.304 4.548 2.366 2.366 0 0 1 1.304-4.547z"/>
  </defs>
  <g fill="none" fill-rule="evenodd">
    <path fill="#000" d="M33.813 18.148c-.743 0-1.18-.453-1.18-1.226V8.68h-2.328c-.64 0-1.07-.367-1.07-.977s.421-.976 1.07-.976h7.023c.64 0 1.063.367 1.063.976 0 .61-.43.977-1.063.977h-2.336v8.242c0 .773-.437 1.226-1.18 1.226zm6.804 0c-.664 0-1.054-.406-1.054-1.101V8.094c0-.953.562-1.524 1.523-1.524.82 0 1.273.344 1.617 1.22l2.797 6.929h.063l2.789-6.93c.343-.867.804-1.219 1.632-1.219.953 0 1.516.563 1.516 1.524v8.953c0 .695-.39 1.101-1.055 1.101-.664 0-1.047-.406-1.047-1.101V10.39h-.062l-2.79 6.82c-.202.5-.515.719-1.007.719-.5 0-.828-.227-1.023-.711l-2.79-6.828h-.062v6.656c0 .695-.383 1.101-1.047 1.101zm19.14.032c-1.921 0-3.202-.688-3.6-1.672a1.268 1.268 0 0 1-.087-.422c0-.523.39-.875.922-.875.367 0 .68.164.992.516.446.585.961.851 1.828.851.829 0 1.368-.344 1.368-.898 0-.453-.29-.696-1.11-.875l-1.406-.297c-1.64-.352-2.469-1.188-2.469-2.43 0-1.601 1.383-2.633 3.555-2.633 1.734 0 3.008.79 3.281 1.735.032.117.055.226.055.336 0 .46-.29.78-.875.78-.297 0-.625-.108-.828-.35-.399-.508-.852-.9-1.672-.9-.773 0-1.313.368-1.313.907 0 .438.329.727 1.164.906l1.383.297c1.782.375 2.516 1.031 2.516 2.281 0 1.665-1.492 2.743-3.703 2.743zm5.97 2.804c-.665 0-1.141-.406-1.141-1.187v-9.172c0-.766.469-1.172 1.125-1.172s1.125.406 1.125 1.18v.453h.047c.453-.984 1.383-1.594 2.594-1.594 2.125 0 3.43 1.617 3.43 4.32 0 2.696-1.298 4.32-3.391 4.32-1.22 0-2.157-.593-2.602-1.538h-.047v3.203c0 .781-.469 1.187-1.14 1.187zm2.984-4.687c1.14 0 1.86-.961 1.86-2.485 0-1.515-.72-2.492-1.86-2.492-1.117 0-1.852.992-1.852 2.492 0 1.516.735 2.485 1.852 2.485zm7.844 1.836c-1.594 0-2.805-1.031-2.805-2.54 0-1.523 1.172-2.405 3.266-2.53l2.109-.126v-.554c0-.781-.547-1.235-1.406-1.235-.696 0-1.117.227-1.625.883-.25.281-.54.422-.906.422-.555 0-.954-.36-.954-.875 0-.18.04-.344.118-.515.39-1 1.734-1.618 3.468-1.618 2.149 0 3.547 1.11 3.547 2.797v4.774c0 .757-.46 1.148-1.11 1.148-.616 0-1.046-.344-1.093-1.016v-.43h-.047c-.469.891-1.515 1.415-2.562 1.415zm.75-1.649c1 0 1.82-.648 1.82-1.554v-.61l-1.766.11c-.851.062-1.336.445-1.336 1.039 0 .625.516 1.015 1.282 1.015zm9.351 1.696c-2.523 0-4.125-1.657-4.125-4.367 0-2.68 1.594-4.368 4.11-4.368 1.68 0 3.078.813 3.53 2a1.6 1.6 0 0 1 .126.563c0 .562-.438.89-.977.89-.453 0-.726-.18-.96-.593-.415-.735-.922-1.07-1.65-1.07-1.155 0-1.866.953-1.866 2.57 0 1.648.71 2.586 1.851 2.586.797 0 1.29-.391 1.64-.985.306-.476.556-.672 1.04-.672.531 0 .96.352.96.914 0 .18-.046.368-.147.594-.5 1.14-1.93 1.938-3.532 1.938zm8.75 0c-2.617 0-4.156-1.617-4.156-4.328 0-2.696 1.57-4.407 4.047-4.407 2.375 0 3.969 1.625 3.969 3.899 0 .633-.36.992-.993.992h-4.78v.101c0 1.243.75 2.055 1.905 2.055.836 0 1.383-.281 2-1.008.243-.25.446-.336.743-.336.492 0 .89.313.89.836 0 .18-.054.368-.156.555-.555 1.031-1.852 1.64-3.469 1.64zm-1.89-5.242h3.554c-.047-1.094-.75-1.805-1.75-1.805s-1.726.734-1.804 1.805z"/>
    <g transform="translate(-3)">
      <mask id="1-project-logo-with-text-b" fill="#fff">
        <use xlink:href="#1-project-logo-with-text-a"/>
      </mask>
      <use fill="#000" xlink:href="#1-project-logo-with-text-a"/>
      <g fill="#000" mask="url(#1-project-logo-with-text-b)">
        <rect width="24" height="24"/>
      </g>
    </g>
  </g>
</svg>
