<?xml version="1.0" encoding="UTF-8"?>
<svg width="100px" height="100px" viewBox="0 0 100 100" version="1.1" xmlns="http://www.w3.org/2000/svg" xmlns:xlink="http://www.w3.org/1999/xlink">
    <!-- Generator: Sketch 55.2 (78181) - https://sketchapp.com -->
    <title>branding / ~ project logo</title>
    <desc>Created with Sketch.</desc>
    <defs>
        <path d="M21.7816638,94.0716806 L71.0648579,94.0716806 L71.0648579,99 L21.7816638,99 L21.7816638,94.0716806 Z M63.603017,50.0808669 L58.9625644,66.2640483 L68.4373737,68.9809061 L58.9625644,66.2640483 L63.603017,50.0808669 Z M63.8154004,50.0515773 C62.4820217,59.6202034 68.3574012,68.9579744 77.9121831,71.697764 L68.4373737,68.9809061 L80.7270644,72.5049182 C81.7888447,72.8093788 82.4027737,73.916936 82.0983131,74.9787163 L79.1255757,85.3458836 C78.8211151,86.4076639 77.7135579,87.0215929 76.6517776,86.7171323 L14.1731589,68.8016766 C13.1113785,68.497216 12.4974496,67.3896589 12.8019102,66.3278785 L15.7746476,55.9607113 C16.0791082,54.8989309 17.1866653,54.285002 18.2484457,54.5894626 L40.0129457,60.8303325 L21.063327,55.3966168 C30.6181088,58.1364064 40.548978,53.3310043 44.488808,44.5097661 C37.284071,38.4422271 33.9039156,28.4958849 36.6681631,18.8558083 C40.419361,5.77382652 54.0653494,-1.79026834 67.1473311,1.96092958 C80.2293129,5.71212749 87.7934078,19.3581158 84.0422099,32.4400976 C81.2779624,42.0801743 73.1406697,48.7239413 63.8154004,50.0515773 Z M54.9214708,44.5975717 C65.3870562,47.59853 76.3038469,41.5472541 79.3048052,31.0816687 C82.3057635,20.6160833 76.2544876,9.69929259 65.7889022,6.69833426 C55.3233168,3.69737593 44.4065261,9.74865182 41.4055678,20.2142372 C38.4046094,30.6798227 44.4558853,41.5966134 54.9214708,44.5975717 Z M57.6383286,35.1227623 C52.4055359,33.6222832 49.379898,28.1638878 50.8803771,22.9310951 C52.3808563,17.6983024 57.8392516,14.6726645 63.0720444,16.1731436 C68.3048371,17.6736228 71.330475,23.1320181 69.8299958,28.3648108 C68.3295167,33.5976036 62.8711213,36.6232415 57.6383286,35.1227623 Z" id="path-1"></path>
    </defs>
    <g id="branding-/-~-project-logo" stroke="none" stroke-width="1" fill="none" fill-rule="evenodd">
        <g id="div">
            <rect fill="#707074" opacity="0" x="0" y="0" width="100" height="100"></rect>
            <mask id="mask-2" fill="white">
                <use xlink:href="#path-1"></use>
            </mask>
            <use fill="#000000" xlink:href="#path-1"></use>
            <g id="colors-/-gray-/-black" mask="url(#mask-2)" fill="#000000">
                <rect id="div" x="0" y="0" width="100" height="100"></rect>
            </g>
        </g>
    </g>
</svg>