<?xml version="1.0" encoding="UTF-8"?>
<svg width="24px" height="24px" viewBox="0 0 24 24" version="1.1" xmlns="http://www.w3.org/2000/svg" xmlns:xlink="http://www.w3.org/1999/xlink">
    <!-- Generator: Sketch 56.2 (81672) - https://sketch.com -->
    <title>icons / sharp / attach file</title>
    <desc>Created with Sketch.</desc>
    <defs>
        <path d="M16.5004959,6.00446281 L16.5004959,17.5063636 C16.5004959,19.7167289 14.7110876,21.5070248 12.5018182,21.5070248 C10.2925488,21.5070248 8.5031405,19.7167289 8.5031405,17.5063636 L8.5031405,5.00429752 C8.5031405,3.62406942 9.62277025,2.5038843 11.002314,2.5038843 C12.3818579,2.5038843 13.5014876,3.62406942 13.5014876,5.00429752 L13.5014876,15.5060331 C13.5014876,16.056124 13.0516364,16.5061983 12.5018182,16.5061983 C11.952,16.5061983 11.5021488,16.056124 11.5021488,15.5060331 L11.5021488,6.00446281 L10.0026446,6.00446281 L10.0026446,15.5060331 C10.0026446,16.8862612 11.1222744,18.0064463 12.5018182,18.0064463 C13.881362,18.0064463 15.0009917,16.8862612 15.0009917,15.5060331 L15.0009917,5.00429752 C15.0009917,2.79393223 13.2115835,1.00363636 11.002314,1.00363636 C8.79304463,1.00363636 7.00363636,2.79393223 7.00363636,5.00429752 L7.00363636,17.5063636 C7.00363636,20.5468661 9.46282314,23.0072727 12.5018182,23.0072727 C15.5408132,23.0072727 18,20.5468661 18,17.5063636 L18,6.00446281 L16.5004959,6.00446281 Z" id="path-1"></path>
    </defs>
    <g id="icons-/-sharp-/-attach-file" stroke="none" stroke-width="1" fill="none" fill-rule="evenodd">
        <g id="div">
            <polygon points="0 0 24 0 24 24 0 24"></polygon>
            <mask id="mask-2" fill="white">
                <use xlink:href="#path-1"></use>
            </mask>
            <use fill="#000000" xlink:href="#path-1"></use>
            <g id="colors-/-gray-/-black" mask="url(#mask-2)" fill="#000000">
                <rect id="div" x="0" y="0" width="24" height="24"></rect>
            </g>
        </g>
    </g>
</svg>